<?xml version="1.0" encoding="utf-8"?>
<svg version="1.1" xmlns:xlink="http://www.w3.org/1999/xlink" width="150px" height="80px" xmlns="http://www.w3.org/2000/svg">
  <defs>
    <mask fill="white" id="clip113">
      <path d="M 0 60  L 0 20  C 0 8.79999999999995  3.14285714285714 0  7.14285714285715 0  L 135.714285714286 0  C 139.714285714286 0  142.857142857143 8.79999999999995  142 20  L 142 70  L 150 80  L 7.14285714285715 80  C 3.14285714285714 80  0 71.2  0 60  Z " fill-rule="evenodd" />
    </mask>
  </defs>
  <g>
    <path d="M 0 60  L 0 20  C 0 8.79999999999995  3.14285714285714 0  7.14285714285715 0  L 135.714285714286 0  C 139.714285714286 0  142.857142857143 8.79999999999995  142 20  L 142 70  L 150 80  L 7.14285714285715 80  C 3.14285714285714 80  0 71.2  0 60  Z " fill-rule="nonzero" fill="#ffffff" stroke="none" />
    <path d="M 0 60  L 0 20  C 0 8.79999999999995  3.14285714285714 0  7.14285714285715 0  L 135.714285714286 0  C 139.714285714286 0  142.857142857143 8.79999999999995  142 20  L 142 70  L 150 80  L 7.14285714285715 80  C 3.14285714285714 80  0 71.2  0 60  Z " stroke-width="2" stroke="#797979" fill="none" mask="url(#clip113)" />
  </g>
</svg>