<?xml version="1.0" encoding="utf-8"?>
<svg version="1.1" xmlns:xlink="http://www.w3.org/1999/xlink" width="186px" height="202px" xmlns="http://www.w3.org/2000/svg">
  <g transform="matrix(1 0 0 1 120 -153 )">
    <path d="M 93 192.982142857143  C 94.1923076923077 192.982142857143  94.7884615384615 192.380952380952  94.7884615384615 191.178571428571  C 94.7884615384615 189.97619047619  94.1923076923077 189.375  93 189.375  C 88.6033653846154 189.375  84.8215144230769 187.778087797619  81.6544471153846 184.584263392857  C 78.4873798076923 181.390438988095  76.9038461538461 177.576636904762  76.9038461538461 173.142857142857  C 76.9038461538461 171.940476190476  76.3076923076923 171.339285714286  75.1153846153846 171.339285714286  C 73.9230769230769 171.339285714286  73.3269230769231 171.940476190476  73.3269230769231 173.142857142857  C 73.3269230769231 178.628720238095  75.2457932692308 183.306733630952  79.0835336538461 187.176897321429  C 82.9212740384615 191.047061011905  87.5600961538462 192.982142857143  93 192.982142857143  Z M 175.828125 148.794642857143  C 178.883413461538 152.251488095238  182.274038461538 155.558035714286  186 158.714285714286  C 186 162.622023809524  184.584134615385 166.003720238095  181.752403846154 168.859375  C 178.920673076923 171.715029761905  175.567307692308 173.142857142857  171.692307692308 173  L 121.615384615385 173  C 121.615384615385 181.108630952381  118.820913461538 187.909598214286  113.231971153846 193.545758928571  C 107.643028846154 199.181919642857  100.899038461538 202  93 202  C 85.1009615384615 202  78.3569711538461 199.181919642857  72.7680288461539 193.545758928571  C 67.1790865384615 187.909598214286  64.3846153846154 181.108630952381  64.3846153846154 173  L 14.3076923076923 173  C 10.4326923076923 173.142857142857  7.07932692307692 171.715029761905  4.24759615384615 168.859375  C 1.41586538461539 166.003720238095  0 162.622023809524  0 158.714285714286  C 3.72596153846154 155.558035714286  7.11658653846154 152.251488095238  10.171875 148.794642857143  C 13.2271634615385 145.337797619048  16.3942307692308 140.84765625  19.6730769230769 135.32421875  C 22.9519230769231 129.80078125  25.7277644230769 123.845238095238  28.0006009615385 117.457589285714  C 30.2734375 111.06994047619  32.1364182692308 103.329613095238  33.5895432692308 94.2366071428571  C 35.0426682692308 85.1436011904762  35.7692307692308 75.3742559523809  35.7692307692308 64.9285714285714  C 35.7692307692308 53.5059523809524  40.1286057692308 42.8911830357143  48.8473557692308 33.0842633928571  C 57.5661057692308 23.27734375  69.0048076923077 17.3218005952381  83.1634615384615 15.2176339285714  C 82.5673076923077 13.789806547619  82.2692307692308 12.3244047619048  82.2692307692308 10.8214285714286  C 82.2692307692308 7.81547619047619  83.3125 5.26041666666666  85.3990384615385 3.15625  C 87.4855769230769 1.05208333333334  90.0192307692308 0  93 0  C 95.9807692307692 0  98.5144230769231 1.05208333333334  100.600961538462 3.15625  C 102.6875 5.26041666666666  103.730769230769 7.81547619047619  103.730769230769 10.8214285714286  C 103.730769230769 12.3244047619048  103.432692307692 13.789806547619  102.836538461538 15.2176339285714  C 116.995192307692 17.3218005952381  128.433894230769 23.27734375  137.152644230769 33.0842633928571  C 145.871394230769 42.8911830357143  150.230769230769 53.5059523809524  150.230769230769 64.9285714285714  C 150.230769230769 75.3742559523809  150.957331730769 85.1436011904762  152.410456730769 94.2366071428571  C 153.863581730769 103.329613095238  155.7265625 111.06994047619  157.999399038462 117.457589285714  C 160.272235576923 123.845238095238  163.048076923077 129.80078125  166.326923076923 135.32421875  C 169.605769230769 140.84765625  172.772836538462 145.337797619048  175.828125 148.794642857143  Z " fill-rule="nonzero" fill="#ffa736" stroke="none" transform="matrix(1 0 0 1 -120 153 )" />
  </g>
</svg>