<?xml version="1.0" encoding="utf-8"?>
<svg version="1.1" xmlns:xlink="http://www.w3.org/1999/xlink" width="220px" height="180px" xmlns="http://www.w3.org/2000/svg">
  <g transform="matrix(1 0 0 1 -10 -256 )">
    <path d="M 120 256  C 181.6 256  230 295.6  230 346  C 230 396.4  181.6 436  120 436  C 58.4 436  10 396.4  10 346  C 10 295.6  58.4 256  120 256  Z " fill-rule="nonzero" fill="#ffffff" stroke="none" />
    <path d="M 120 256.5  C 181.32 256.5  229.5 295.88  229.5 346  C 229.5 396.12  181.32 435.5  120 435.5  C 58.68 435.5  10.5 396.12  10.5 346  C 10.5 295.88  58.68 256.5  120 256.5  Z " stroke-width="1" stroke="#797979" fill="none" />
  </g>
</svg>