<?xml version="1.0" encoding="utf-8"?>
<svg version="1.1" xmlns:xlink="http://www.w3.org/1999/xlink" width="375px" height="237px" xmlns="http://www.w3.org/2000/svg">
  <defs>
    <mask fill="white" id="clip114">
      <path d="M 0 119  C 0 52.92  81.8181818181818 3  187.5 1  C 293.181818181818 -1  375 52.92  375 119  C 375 185.08  292.5 237  187.5 237  C 82.5 237  0 185.08  0 119  Z " fill-rule="evenodd" />
    </mask>
  </defs>
  <g transform="matrix(1 0 0 1 215 -32 )">
    <path d="M 0 119  C 0 52.92  81.8181818181818 3  187.5 1  C 293.181818181818 -1  375 52.92  375 119  C 375 185.08  292.5 237  187.5 237  C 82.5 237  0 185.08  0 119  Z " fill-rule="nonzero" fill="#ffffff" stroke="none" transform="matrix(1 0 0 1 -215 32 )" />
    <path d="M 0 119  C 0 52.92  81.8181818181818 3  187.5 1  C 293.181818181818 -1  375 52.92  375 119  C 375 185.08  292.5 237  187.5 237  C 82.5 237  0 185.08  0 119  Z " stroke-width="2" stroke="#797979" fill="none" transform="matrix(1 0 0 1 -215 32 )" mask="url(#clip114)" />
  </g>
</svg>