<?xml version="1.0" encoding="utf-8"?>
<svg version="1.1" xmlns:xlink="http://www.w3.org/1999/xlink" width="333px" height="346px" xmlns="http://www.w3.org/2000/svg">
  <g transform="matrix(1 0 0 1 -26 -80 )">
    <path d="M 192.5 80  C 285.74 80  359 156.12  359 253  C 359 349.88  285.74 426  192.5 426  C 99.26 426  26 349.88  26 253  C 26 156.12  99.26 80  192.5 80  Z " fill-rule="nonzero" fill="#ffffff" stroke="none" />
    <path d="M 192.5 80.5  C 285.46 80.5  358.5 156.4  358.5 253  C 358.5 349.6  285.46 425.5  192.5 425.5  C 99.54 425.5  26.5 349.6  26.5 253  C 26.5 156.4  99.54 80.5  192.5 80.5  Z " stroke-width="1" stroke="#797979" fill="none" />
  </g>
</svg>