<?xml version="1.0" encoding="utf-8"?>
<svg version="1.1" xmlns:xlink="http://www.w3.org/1999/xlink" width="33px" height="50px" xmlns="http://www.w3.org/2000/svg">
  <g transform="matrix(1 0 0 1 130 -340 )">
    <path d="M 22.3330078125 22.55859375  C 23.9443359375 20.9309895833333  24.75 18.9670138888889  24.75 16.6666666666667  C 24.75 14.3663194444444  23.9443359375 12.40234375  22.3330078125 10.7747395833333  C 20.7216796875 9.14713541666667  18.77734375 8.33333333333333  16.5 8.33333333333333  C 14.22265625 8.33333333333333  12.2783203125 9.14713541666667  10.6669921875 10.7747395833333  C 9.0556640625 12.40234375  8.25 14.3663194444444  8.25 16.6666666666667  C 8.25 18.9670138888889  9.0556640625 20.9309895833333  10.6669921875 22.55859375  C 12.2783203125 24.1861979166667  14.22265625 25  16.5 25  C 18.77734375 25  20.7216796875 24.1861979166667  22.3330078125 22.55859375  Z M 28.166015625 4.8828125  C 31.388671875 8.13802083333333  33 12.0659722222222  33 16.6666666666667  C 33 19.0321180555556  32.6455078125 20.9743923611111  31.9365234375 22.4934895833333  L 20.2060546875 47.6888020833333  C 19.8623046875 48.4049479166667  19.35205078125 48.9691840277778  18.67529296875 49.3815104166667  C 17.99853515625 49.7938368055556  17.2734375 50  16.5 50  C 15.7265625 50  15.00146484375 49.7938368055556  14.32470703125 49.3815104166667  C 13.64794921875 48.9691840277778  13.1484375 48.4049479166667  12.826171875 47.6888020833333  L 1.0634765625 22.4934895833333  C 0.3544921875 20.9743923611111  0 19.0321180555556  0 16.6666666666667  C 0 12.0659722222222  1.611328125 8.13802083333333  4.833984375 4.8828125  C 8.056640625 1.62760416666667  11.9453125 0  16.5 0  C 21.0546875 0  24.943359375 1.62760416666667  28.166015625 4.8828125  Z " fill-rule="nonzero" fill="#ffa736" stroke="none" transform="matrix(1 0 0 1 -130 340 )" />
  </g>
</svg>