<?xml version="1.0" encoding="utf-8"?>
<svg version="1.1" xmlns:xlink="http://www.w3.org/1999/xlink" width="180px" height="137px" xmlns="http://www.w3.org/2000/svg">
  <g transform="matrix(1 0 0 1 -100 -156 )">
    <path d="M 176.748387096774 18.9124579124579  C 178.916129032258 21.0650953984287  180 23.679012345679  180 26.7542087542088  C 180 29.8294051627385  178.916129032258 32.4433221099888  176.748387096774 34.5959595959596  L 92.6709677419355 118.087542087542  L 76.8774193548387 133.771043771044  C 74.7096774193548 135.923681257015  72.0774193548387 137  68.9806451612903 137  C 65.8838709677419 137  63.2516129032258 135.923681257015  61.0838709677419 133.771043771044  L 45.2903225806452 118.087542087542  L 3.25161290322581 76.3417508417509  C 1.08387096774194 74.18911335578  0 71.5751964085297  0 68.5  C 0 65.4248035914703  1.08387096774194 62.81088664422  3.25161290322581 60.6582491582492  L 19.0451612903226 44.9747474747475  C 21.2129032258065 42.8221099887767  23.8451612903226 41.7457912457912  26.941935483871 41.7457912457912  C 30.0387096774194 41.7457912457912  32.6709677419355 42.8221099887767  34.8387096774194 44.9747474747475  L 68.9806451612903 78.9941077441077  L 145.161290322581 3.22895622895623  C 147.329032258065 1.0763187429854  149.961290322581 0  153.058064516129 0  C 156.154838709677 0  158.787096774194 1.0763187429854  160.954838709677 3.22895622895623  L 176.748387096774 18.9124579124579  Z " fill-rule="nonzero" fill="#3de833" stroke="none" transform="matrix(1 0 0 1 100 156 )" />
  </g>
</svg>