<?xml version="1.0" encoding="utf-8"?>
<svg version="1.1" xmlns:xlink="http://www.w3.org/1999/xlink" width="212px" height="196px" xmlns="http://www.w3.org/2000/svg">
  <g transform="matrix(1 0 0 1 -18 -250 )">
    <path d="M 124 250  C 183.36 250  230 293.12  230 348  C 230 402.88  183.36 446  124 446  C 64.64 446  18 402.88  18 348  C 18 293.12  64.64 250  124 250  Z " fill-rule="nonzero" fill="#ffffff" stroke="none" />
    <path d="M 124 250.5  C 183.08 250.5  229.5 293.4  229.5 348  C 229.5 402.6  183.08 445.5  124 445.5  C 64.92 445.5  18.5 402.6  18.5 348  C 18.5 293.4  64.92 250.5  124 250.5  Z " stroke-width="1" stroke="#797979" fill="none" />
  </g>
</svg>