<?xml version="1.0" encoding="utf-8"?>
<svg version="1.1" xmlns:xlink="http://www.w3.org/1999/xlink" width="220px" height="157px" xmlns="http://www.w3.org/2000/svg">
  <g transform="matrix(1 0 0 1 -11 -289 )">
    <path d="M 121 289  C 182.6 289  231 323.54  231 367.5  C 231 411.46  182.6 446  121 446  C 59.4 446  11 411.46  11 367.5  C 11 323.54  59.4 289  121 289  Z " fill-rule="nonzero" fill="#ffffff" stroke="none" />
    <path d="M 121 289.5  C 182.32 289.5  230.5 323.82  230.5 367.5  C 230.5 411.18  182.32 445.5  121 445.5  C 59.68 445.5  11.5 411.18  11.5 367.5  C 11.5 323.82  59.68 289.5  121 289.5  Z " stroke-width="1" stroke="#797979" fill="none" />
  </g>
</svg>