<?xml version="1.0" encoding="utf-8"?>
<svg version="1.1" xmlns:xlink="http://www.w3.org/1999/xlink" width="138px" height="161px" xmlns="http://www.w3.org/2000/svg">
  <g transform="matrix(1 0 0 1 -123 -191 )">
    <path d="M 2.875 143  L 135.125 143  C 135.963541666667 143.75  136.65234375 144.01953125  137.19140625 144.55859375  C 137.73046875 145.09765625  138 145.786458333333  138 146.625  L 138 158.125  C 138 158.963541666667  137.73046875 159.65234375  137.19140625 160.19140625  C 136.65234375 160.73046875  135.963541666667 161  135.125 161  L 2.875 161  C 2.03645833333333 161  1.34765625 160.73046875  0.80859375 160.19140625  C 0.26953125 159.65234375  0 158.963541666667  0 158.125  L 0 146.625  C 0 145.786458333333  0.26953125 145.09765625  0.80859375 144.55859375  C 1.34765625 144.01953125  2.03645833333333 143.75  2.875 143  Z M 126.3203125 138  L 11.6796875 138  C 11.859375 134.705729166667  12.3385416666667 131.501302083333  13.1171875 128.38671875  C 13.8958333333333 125.272135416667  14.7942708333333 122.427083333333  15.8125 119.8515625  C 16.8307291666667 117.276041666667  18.2083333333333 114.670572916667  19.9453125 112.03515625  C 21.6822916666667 109.399739583333  23.2845052083333 107.123697916667  24.751953125 105.20703125  C 26.2194010416667 103.290364583333  28.1510416666667 101.208984375  30.546875 98.962890625  C 32.9427083333333 96.716796875  34.9192708333333 94.919921875  36.4765625 93.572265625  C 38.0338541666667 92.224609375  40.1451822916667 90.5774739583333  42.810546875 88.630859375  C 45.4759114583333 86.6842447916667  47.4674479166667 85.26171875  48.78515625 84.36328125  C 50.1028645833333 83.46484375  52.0494791666667 82.1770833333333  54.625 80.5  C 52.0494791666667 78.8229166666667  50.1028645833333 77.53515625  48.78515625 76.63671875  C 47.4674479166667 75.73828125  45.4759114583333 74.3157552083333  42.810546875 72.369140625  C 40.1451822916667 70.4225260416667  38.0338541666667 68.775390625  36.4765625 67.427734375  C 34.9192708333333 66.080078125  32.9427083333333 64.283203125  30.546875 62.037109375  C 28.1510416666667 59.791015625  26.2194010416667 57.7096354166667  24.751953125 55.79296875  C 23.2845052083333 53.8763020833333  21.6822916666667 51.6002604166667  19.9453125 48.96484375  C 18.2083333333333 46.3294270833333  16.8307291666667 43.7239583333333  15.8125 41.1484375  C 14.7942708333333 38.5729166666667  13.8958333333333 35.7278645833333  13.1171875 32.61328125  C 12.3385416666667 29.4986979166667  11.859375 26.2942708333333  11.6796875 23  L 126.3203125 23  C 126.140625 26.2942708333333  125.661458333333 29.4986979166667  124.8828125 32.61328125  C 124.104166666667 35.7278645833333  123.205729166667 38.5729166666667  122.1875 41.1484375  C 121.169270833333 43.7239583333333  119.791666666667 46.3294270833333  118.0546875 48.96484375  C 116.317708333333 51.6002604166667  114.715494791667 53.8763020833333  113.248046875 55.79296875  C 111.780598958333 57.7096354166667  109.848958333333 59.791015625  107.453125 62.037109375  C 105.057291666667 64.283203125  103.080729166667 66.080078125  101.5234375 67.427734375  C 99.9661458333333 68.775390625  97.8548177083333 70.4225260416667  95.189453125 72.369140625  C 92.5240885416667 74.3157552083333  90.5325520833333 75.73828125  89.21484375 76.63671875  C 87.8971354166667 77.53515625  85.9505208333333 78.8229166666667  83.375 80.5  C 85.9505208333333 82.1770833333333  87.8971354166667 83.46484375  89.21484375 84.36328125  C 90.5325520833333 85.26171875  92.5240885416667 86.6842447916667  95.189453125 88.630859375  C 97.8548177083333 90.5774739583333  99.9661458333333 92.224609375  101.5234375 93.572265625  C 103.080729166667 94.919921875  105.057291666667 96.716796875  107.453125 98.962890625  C 109.848958333333 101.208984375  111.780598958333 103.290364583333  113.248046875 105.20703125  C 114.715494791667 107.123697916667  116.317708333333 109.399739583333  118.0546875 112.03515625  C 119.791666666667 114.670572916667  121.169270833333 117.276041666667  122.1875 119.8515625  C 123.205729166667 122.427083333333  124.104166666667 125.272135416667  124.8828125 128.38671875  C 125.661458333333 131.501302083333  126.140625 134.705729166667  126.3203125 138  Z M 2.875 0  L 135.125 0  C 135.963541666667 0  136.65234375 0.269531249999992  137.19140625 0.808593749999995  C 137.73046875 1.34765625  138 2.03645833333332  138 2.87500000000001  L 138 14.375  C 138 15.2135416666667  137.73046875 15.90234375  137.19140625 16.44140625  C 136.65234375 16.98046875  135.963541666667 17.25  135.125 18  L 2.875 18  C 2.03645833333333 17.25  1.34765625 16.98046875  0.80859375 16.44140625  C 0.26953125 15.90234375  0 15.2135416666667  0 14.375  L 0 2.87500000000001  C 0 2.03645833333332  0.26953125 1.34765625  0.80859375 0.808593749999995  C 1.34765625 0.269531249999992  2.03645833333333 0  2.875 0  Z " fill-rule="nonzero" fill="#ffa736" stroke="none" transform="matrix(1 0 0 1 123 191 )" />
  </g>
</svg>