<?xml version="1.0" encoding="utf-8"?>
<svg version="1.1" xmlns:xlink="http://www.w3.org/1999/xlink" width="50px" height="50px" xmlns="http://www.w3.org/2000/svg">
  <g transform="matrix(1 0 0 1 -310 -76 )">
    <path d="M 48.8215488215488 37.3737373737374  C 49.6071829405163 38.1593714927048  50 39.1133557800224  50 40.2356902356902  C 50 41.358024691358  49.6071829405163 42.3120089786756  48.8215488215488 43.0976430976431  L 43.0976430976431 48.8215488215488  C 42.3120089786756 49.6071829405163  41.358024691358 50  40.2356902356902 50  C 39.1133557800225 50  38.1593714927048 49.6071829405163  37.3737373737374 48.8215488215488  L 25 36.4478114478115  L 12.6262626262626 48.8215488215488  C 11.8406285072952 49.6071829405163  10.8866442199776 50  9.76430976430976 50  C 8.64197530864198 50  7.68799102132436 49.6071829405163  6.9023569023569 48.8215488215488  L 1.17845117845118 43.0976430976431  C 0.392817059483727 42.3120089786756  0 41.358024691358  0 40.2356902356902  C 0 39.1133557800224  0.392817059483727 38.1593714927048  1.17845117845118 37.3737373737374  L 13.5521885521886 25  L 1.17845117845118 12.6262626262626  C 0.392817059483727 11.8406285072952  0 10.8866442199776  0 9.76430976430976  C 0 8.64197530864197  0.392817059483727 7.68799102132435  1.17845117845118 6.9023569023569  L 6.9023569023569 1.17845117845118  C 7.68799102132436 0.392817059483724  8.64197530864198 0  9.76430976430976 0  C 10.8866442199776 0  11.8406285072952 0.392817059483724  12.6262626262626 1.17845117845118  L 25 13.5521885521886  L 37.3737373737374 1.17845117845118  C 38.1593714927048 0.392817059483724  39.1133557800225 0  40.2356902356902 0  C 41.358024691358 0  42.3120089786756 0.392817059483724  43.0976430976431 1.17845117845118  L 48.8215488215488 6.9023569023569  C 49.6071829405163 7.68799102132435  50 8.64197530864197  50 9.76430976430976  C 50 10.8866442199776  49.6071829405163 11.8406285072952  48.8215488215488 12.6262626262626  L 36.4478114478114 25  L 48.8215488215488 37.3737373737374  Z " fill-rule="nonzero" fill="#ffa736" stroke="none" transform="matrix(1 0 0 1 310 76 )" />
  </g>
</svg>